<svg aria-hidden="true" fill="none" viewBox="0 0 22 23" xmlns="http://www.w3.org/2000/svg">
    <path clip-rule="evenodd" d="M9.49011 6.21305C9.59494 6.10928 9.73825 6.05001 9.88884 6.05001ZM8.71622 5.43133C9.02816 5.12252 9.45006 4.95001 9.88884 4.95001H12.1111C12.5499 4.95001 12.9717 5.12252 13.2837 5.43131C13.5959 5.74037 13.7722 6.16069 13.7722 6.60001V7.15001H16C16.3037 7.15001 16.55 7.39626 16.55 7.70001C16.55 8.00377 16.3037 8.25001 16 8.25001H15.4389V15.4C15.4389 15.8394 15.2624 16.2596 14.9505 16.5686C14.6385 16.8774 14.2166 17.05 13.7778 17.05H8.22217C7.78339 17.05 7.36148 16.8775 7.04955 16.5687C6.73743 16.2597 6.56106 15.8394 6.56106 15.4V8.25001H5.99995C5.69619 8.25001 5.44995 8.00377 5.44995 7.70001C5.44995 7.39626 5.69619 7.15001 5.99995 7.15001H8.22773V6.60001C8.22773 6.16061 8.4041 5.74033 8.71622 5.43133ZM8.77773 8.25001H7.66106V15.4C7.66106 15.544 7.71882 15.6834 7.82345 15.787C7.92826 15.8907 8.0716 15.95 8.22217 15.95H13.7778C13.9283 15.95 14.0716 15.8908 14.1764 15.787M8.77773 8.25001H14.3389V15.4C14.3389 15.544 14.281 15.6834 14.1764 15.787M12.6722 7.15001H9.32773V6.60001C9.32773 6.45594 9.3855 6.31662 9.49011 6.21305M12.6722 7.15001V6.60001C12.6722 6.45586 12.6144 6.31659 12.5098 6.21307C12.405 6.10928 12.2616 6.05001 12.1111 6.05001H9.88884" fill="currentColor" fill-rule="evenodd"/>
</svg>