<svg fill="none" viewBox="0 0 17 17" xmlns="http://www.w3.org/2000/svg">
    <path clip-rule="evenodd" d="M1.68579 8.37431C1.68579 4.41627 4.89442 1.20764 8.85246 1.20764C12.8105 1.20764 16.0191 4.41626 16.0191 8.37431C16.0191 12.3323 12.8105 15.541 8.85246 15.541C4.89441 15.541 1.68579 12.3323 1.68579 8.37431ZM8.85246 2.20764C5.4467 2.20764 2.68579 4.96855 2.68579 8.37431C2.68579 11.78 5.4467 14.541 8.85246 14.541C12.2582 14.541 15.0191 11.78 15.0191 8.37431C15.0191 4.96855 12.2582 2.20764 8.85246 2.20764Z" fill="#8C98A9" fill-rule="evenodd"/>
    <path clip-rule="evenodd" d="M8.85254 3.87427C9.12868 3.87427 9.35254 4.09813 9.35254 4.37427V8.06525L11.7428 9.26039C11.9898 9.38388 12.0899 9.68422 11.9664 9.93121C11.8429 10.1782 11.5426 10.2783 11.2956 10.1548L8.62893 8.82148C8.45954 8.73679 8.35254 8.56365 8.35254 8.37427V4.37427C8.35254 4.09813 8.5764 3.87427 8.85254 3.87427Z" fill="#8C98A9" fill-rule="evenodd"/>
</svg>