<svg aria-hidden="true" viewBox="0 0 27 30" fill="none" xmlns="http://www.w3.org/2000/svg">
    <path fill-rule="evenodd" clip-rule="evenodd" d="M13.1954 10.7299C11.2148 10.7299 9.60923 12.3355 9.60923 14.3161C9.60923 16.2967 11.2148 17.9023 13.1954 17.9023C15.176 17.9023 16.7816 16.2967 16.7816 14.3161C16.7816 12.3355 15.176 10.7299 13.1954 10.7299ZM8.2644 14.3161C8.2644 11.5928 10.4721 9.38509 13.1954 9.38509C15.9188 9.38509 18.1265 11.5928 18.1265 14.3161C18.1265 17.0395 15.9188 19.2472 13.1954 19.2472C10.4721 19.2472 8.2644 17.0395 8.2644 14.3161Z" fill="#EC981A"/>
    <path fill-rule="evenodd" clip-rule="evenodd" d="M13.1237 13.4196C12.6286 13.4196 12.2272 13.821 12.2272 14.3161C12.2272 14.8113 12.6286 15.2127 13.1237 15.2127C13.6189 15.2127 14.0203 14.8113 14.0203 14.3161C14.0203 13.821 13.6189 13.4196 13.1237 13.4196ZM10.8823 14.3161C10.8823 13.0783 11.8858 12.0748 13.1237 12.0748C14.3616 12.0748 15.3651 13.0783 15.3651 14.3161C15.3651 15.554 14.3616 16.5575 13.1237 16.5575C11.8858 16.5575 10.8823 15.554 10.8823 14.3161Z" fill="#EC981A"/>
    <path fill-rule="evenodd" clip-rule="evenodd" d="M4.90451 7.44448C5.19737 7.67283 5.24966 8.09536 5.0213 8.38822C2.99717 10.9841 2.15993 14.3142 3.00105 17.5364L2.5593 17.6517L3.00106 17.5364C4.47586 23.1862 10.6148 26.4909 16.7941 24.7913C17.1521 24.6928 17.5222 24.9033 17.6207 25.2613C17.7192 25.6194 17.5088 25.9895 17.1507 26.088C10.3415 27.9608 3.3874 24.3409 1.69983 17.8761C0.7422 14.2076 1.70653 10.4523 3.96078 7.56127C4.18913 7.26841 4.61166 7.21612 4.90451 7.44448Z" fill="#A96500"/>
    <path fill-rule="evenodd" clip-rule="evenodd" d="M23.1316 11.557C21.6567 5.90729 15.5178 2.60253 9.33857 4.30209C8.98051 4.40057 8.6104 4.19014 8.51192 3.83207C8.41343 3.474 8.62387 3.10389 8.98193 3.00541C15.7912 1.13258 22.7452 4.75256 24.4328 11.2173L24.4328 11.2174C25.3904 14.8859 24.4261 18.6412 22.1719 21.5322C21.9435 21.825 21.521 21.8773 21.2281 21.649C20.9353 21.4206 20.883 20.9981 21.1113 20.7052C23.1354 18.1093 23.9727 14.7792 23.1316 11.557Z" fill="#A96500"/>
    <path fill-rule="evenodd" clip-rule="evenodd" d="M4.77917 7.27987C4.93494 7.36978 5.04819 7.51836 5.09362 7.69238L5.99942 11.1623C6.09322 11.5216 5.87797 11.8889 5.51864 11.9827C5.15932 12.0765 4.79199 11.8613 4.69819 11.502L3.96447 8.69122L1.16352 9.46159C0.805457 9.56008 0.43535 9.34964 0.336867 8.99157C0.238384 8.63351 0.448819 8.2634 0.806886 8.16492L4.26469 7.21388C4.43811 7.16618 4.62341 7.18995 4.77917 7.27987Z" fill="#A96500"/>
    <path fill-rule="evenodd" clip-rule="evenodd" d="M20.6139 17.1107C20.9733 17.0169 21.3406 17.2321 21.4344 17.5915L22.1682 20.4022L24.9691 19.6318C25.3271 19.5333 25.6972 19.7438 25.7957 20.1018C25.8942 20.4599 25.6838 20.83 25.3257 20.9285L21.868 21.8796C21.6946 21.9273 21.5093 21.9035 21.3535 21.8136C21.1977 21.7237 21.0845 21.5751 21.0391 21.4011L20.1332 17.9312C20.0394 17.5718 20.2546 17.2045 20.6139 17.1107Z" fill="#A96500"/>
</svg>
