<svg viewBox="0 0 27 30" fill="none" xmlns="http://www.w3.org/2000/svg">
    <path fill-rule="evenodd" clip-rule="evenodd" d="M13.6223 10.936C11.6417 10.936 10.0361 12.5416 10.0361 14.5222C10.0361 16.5028 11.6417 18.1084 13.6223 18.1084C15.6029 18.1084 17.2085 16.5028 17.2085 14.5222C17.2085 12.5416 15.6029 10.936 13.6223 10.936ZM8.69128 14.5222C8.69128 11.7988 10.899 9.59113 13.6223 9.59113C16.3457 9.59113 18.5534 11.7988 18.5534 14.5222C18.5534 17.2455 16.3457 19.4532 13.6223 19.4532C10.899 19.4532 8.69128 17.2455 8.69128 14.5222Z" fill="#3B436B"/>
    <path fill-rule="evenodd" clip-rule="evenodd" d="M13.5506 13.6257C13.0554 13.6257 12.654 14.0271 12.654 14.5222C12.654 15.0174 13.0554 15.4188 13.5506 15.4188C14.0457 15.4188 14.4471 15.0174 14.4471 14.5222C14.4471 14.0271 14.0457 13.6257 13.5506 13.6257ZM11.3092 14.5222C11.3092 13.2843 12.3127 12.2808 13.5506 12.2808C14.7885 12.2808 15.792 13.2843 15.792 14.5222C15.792 15.7601 14.7885 16.7636 13.5506 16.7636C12.3127 16.7636 11.3092 15.7601 11.3092 14.5222Z" fill="#3B436B"/>
    <path fill-rule="evenodd" clip-rule="evenodd" d="M5.33139 7.65054C5.62425 7.8789 5.67654 8.30142 5.44818 8.59428C3.42405 11.1902 2.58681 14.5203 3.42793 17.7425L2.98618 17.8578L3.42794 17.7425C4.90274 23.3922 11.0417 26.6969 17.221 24.9974C17.579 24.8989 17.9491 25.1093 18.0476 25.4674C18.1461 25.8255 17.9357 26.1956 17.5776 26.294C10.7684 28.1669 3.81428 24.547 2.12671 18.0822C1.16908 14.4136 2.13341 10.6583 4.38766 7.76733C4.61601 7.47448 5.03854 7.42219 5.33139 7.65054Z" fill="#2D3660"/>
    <path fill-rule="evenodd" clip-rule="evenodd" d="M23.5585 11.7631C22.0836 6.11337 15.9447 2.80861 9.76545 4.50817C9.40739 4.60665 9.03728 4.39621 8.9388 4.03815C8.84031 3.68008 9.05075 3.30997 9.40881 3.21149C16.2181 1.33866 23.1721 4.95864 24.8597 11.4234L24.8597 11.4234C25.8173 15.0919 24.853 18.8473 22.5987 21.7383C22.3704 22.0311 21.9479 22.0834 21.655 21.8551C21.3622 21.6267 21.3099 21.2042 21.5382 20.9113C23.5623 18.3154 24.3996 14.9853 23.5585 11.7631Z" fill="#2D3660"/>
    <path fill-rule="evenodd" clip-rule="evenodd" d="M5.20605 7.48594C5.36182 7.57585 5.47507 7.72443 5.5205 7.89845L6.4263 11.3684C6.5201 11.7277 6.30485 12.095 5.94552 12.1888C5.5862 12.2826 5.21887 12.0674 5.12507 11.708L4.39135 8.89729L1.5904 9.66766C1.23234 9.76615 0.86223 9.55571 0.763747 9.19764C0.665264 8.83958 0.875699 8.46947 1.23377 8.37099L4.69157 7.41995C4.86499 7.37225 5.05029 7.39602 5.20605 7.48594Z" fill="#2D3660"/>
    <path fill-rule="evenodd" clip-rule="evenodd" d="M21.0408 17.3168C21.4001 17.223 21.7675 17.4382 21.8613 17.7975L22.5951 20.6083L25.3959 19.8379C25.754 19.7394 26.1241 19.9498 26.2226 20.3079C26.3211 20.666 26.1107 21.0361 25.7526 21.1346L22.2949 22.0856C22.1214 22.1333 21.9362 22.1096 21.7804 22.0197C21.6246 21.9297 21.5114 21.7812 21.4659 21.6072L20.5601 18.1372C20.4662 17.7779 20.6815 17.4106 21.0408 17.3168Z" fill="#2D3660"/>
</svg>
