<svg aria-hidden="true" fill="none" viewBox="0 0 16 14" xmlns="http://www.w3.org/2000/svg">
    <path d="M6.48286 1.91894C6.35829 1.56759 6.23257 1.21334 6.23029 1.2087C6.17029 1.07245 6.03143 0.986636 5.88514 1.00171C5.79257 1.00925 3.60229 1.20058 2.19886 2.34568C1.46514 3.03331 0 7.05362 0 10.5295C0 10.591 0.0154286 10.6506 0.0457143 10.704C1.05771 12.5072 3.81657 12.9791 4.44514 12.9994C4.44914 13 4.45257 13 4.456 13C4.56686 13 4.67086 12.9461 4.73714 12.855L5.41714 11.9204C4.29371 11.747 4.09086 11.521 4.04343 11.4856C3.78971 11.296 3.60229 11.0304 3.82971 10.6953C4.00457 10.435 4.37143 10.3492 4.65257 10.4958C4.94057 10.6321 5.71143 11.0705 8 11.0589C10.2726 11.0519 11.2703 10.5689 11.2846 10.5585C11.6663 10.384 11.964 10.4558 12.1497 10.7145C12.3709 11.0664 12.2131 11.3046 11.9606 11.4937C11.9131 11.529 11.7983 11.6282 10.5914 11.9181L11.2629 12.8545C11.3286 12.9461 11.4331 12.9994 11.544 12.9994C11.548 12.9994 11.5514 12.9994 11.5549 12.9989C12.184 12.9786 14.9429 12.5066 15.9543 10.7034C15.9846 10.6501 16 10.5904 16 10.5289C16 7.05362 14.5349 3.03331 13.7829 2.3306C12.3977 1.20116 10.2074 1.00983 10.1149 1.00171C9.96856 0.988956 9.82968 1.07303 9.76968 1.2087C9.76744 1.21334 9.64512 1.57339 9.52688 1.92069C9.52688 1.92069 8.59488 1.78212 8 1.78212C7.40514 1.78212 6.48286 1.91894 6.48286 1.91894ZM5.71429 9.31944C5.08286 9.31944 4.57143 8.54659 4.57143 7.59225C4.57143 6.6379 5.08286 5.86504 5.71429 5.86504C6.348 5.76937 6.84343 6.6379 6.85714 7.59225C6.85714 8.54659 6.34571 9.31944 5.71429 9.31944ZM10.2857 9.31944C9.65432 9.31944 9.14288 8.54138 9.14288 7.58181C9.14288 6.62225 9.65432 5.84416 10.2857 5.84416C10.9171 5.84416 11.4286 6.62225 11.4286 7.58181C11.4286 8.54138 10.9171 9.31944 10.2857 9.31944Z" fill="currentColor"/>
</svg>