<svg aria-hidden="true" fill="none" viewBox="0 0 21 21" xmlns="http://www.w3.org/2000/svg">
    <path clip-rule="evenodd" d="M16.4185 16.1641C17.3074 15.1356 17.8187 13.724 17.8187 12.2372H19.0185C19.0185 13.9903 18.4174 15.6862 17.3263 16.9487C16.2328 18.2139 14.7292 18.9453 13.1394 18.9453V17.7455C14.3498 17.7455 15.532 17.1899 16.4185 16.1641Z" fill="currentColor" fill-rule="evenodd"/>
    <path clip-rule="evenodd" d="M10.5034 1.49353C9.53243 1.49266 8.57217 1.66067 7.67809 1.9866L7.47262 1.42297L7.67809 1.9866C6.78404 2.31252 5.97606 2.78908 5.29876 3.38586L5.29875 3.38586C4.62157 3.98252 4.089 4.6869 3.72731 5.45649C3.36577 6.22578 3.18102 7.04715 3.18102 7.87439H1.9812C1.9812 6.86698 2.20647 5.87169 2.64143 4.94616L2.64144 4.94616C3.07627 4.02093 3.71112 3.18561 4.50556 2.48563C5.29986 1.78577 6.23882 1.23422 7.26715 0.859342L7.26716 0.859341C8.29538 0.484508 9.39517 0.292747 10.5042 0.293705C12.7398 0.293767 14.8965 1.07638 16.4974 2.48834L16.4974 2.48834C18.1007 3.90248 19.0187 5.8378 19.0187 7.87439H17.8189C17.8189 6.20814 17.069 4.59233 15.7037 3.38816C14.336 2.18186 12.4666 1.49353 10.5039 1.49353L10.5034 1.49353ZM10.5042 0.293705C10.5042 0.293705 10.5043 0.293705 10.5044 0.293705L10.5039 0.893348V0.293705C10.504 0.293705 10.5041 0.293705 10.5042 0.293705Z" fill="currentColor" fill-rule="evenodd"/>
    <path clip-rule="evenodd" d="M5.63112 6.72912C4.72467 6.72912 3.86852 7.04616 3.24821 7.59112L2.85227 7.14042L3.24821 7.59112C2.6304 8.13388 2.30114 8.85213 2.30114 9.58172V10.5301C2.30114 10.893 2.38239 11.2548 2.54299 11.5954M2.45632 6.68973C3.31002 5.93974 4.45302 5.5293 5.63112 5.5293C6.12481 5.5293 6.61144 5.70089 6.98118 6.02572C7.35341 6.35273 7.58035 6.8142 7.58035 7.31462V12.7972C7.58035 13.2976 7.3534 13.7591 6.98116 14.0861C6.61138 14.411 6.12474 14.5825 5.63112 14.5825C5.04626 14.5825 4.46573 14.4813 3.92209 14.2835C3.37839 14.0857 2.87977 13.7941 2.45633 13.4221L2.45632 13.4221C2.03274 13.0499 1.69198 12.6039 1.45777 12.1072L1.45775 12.1071C1.22336 11.61 1.10132 11.0738 1.10132 10.5301V9.58172C1.10132 8.48008 1.60014 7.44193 2.45632 6.68974L2.45632 6.68973ZM5.63112 6.72912C5.85315 6.72912 6.05293 6.80731 6.18929 6.9271ZM6.18929 6.9271L6.58295 6.47902ZM6.38053 7.31462C6.38053 7.18626 6.32315 7.0447 6.1893 6.9271L6.58295 6.47902M6.38053 7.31462V12.7972ZM3.2482 12.5207C2.94195 12.2516 2.70377 11.9364 2.543 11.5955ZM3.24821 12.5207C3.55463 12.7899 3.92245 13.0068 4.33235 13.156L4.13408 13.7009L4.33235 13.156C4.7423 13.3052 5.18382 13.3827 5.63112 13.3827C5.85319 13.3827 6.05293 13.3045 6.18924 13.1847L6.18931 13.1847C6.32316 13.0671 6.38053 12.9256 6.38053 12.7972" fill="currentColor" fill-rule="evenodd"/>
    <path clip-rule="evenodd" d="M14.8108 6.92718C14.9472 6.8074 15.147 6.72924 15.369 6.72924ZM14.0189 6.02581C14.3887 5.701 14.8753 5.52942 15.369 5.52942C16.547 5.52942 17.6901 5.9399 18.5437 6.68989M15.369 6.72924C16.2754 6.72924 17.1316 7.04631 17.7518 7.59125ZM14.8108 6.92718C14.677 7.04482 14.6195 7.18647 14.6195 7.31477V12.7973C14.6195 12.9256 14.6769 13.0672 14.8107 13.1848M14.0189 6.02581C13.6468 6.35278 13.4197 6.8143 13.4197 7.31477ZM17.7518 7.59125C18.3696 8.134 18.6989 8.85226 18.6989 9.58186ZM18.5437 6.68989C19.3999 7.44207 19.8987 8.48023 19.8987 9.58186V10.5479C19.8934 11.6464 19.3924 12.6799 18.5368 13.4282M13.4197 7.31477V12.7973ZM18.6989 9.58186V10.5434ZM18.6989 10.5434C18.695 11.2706 18.364 11.9854 17.7469 12.5252C17.1269 13.0675 16.2729 13.3828 15.369 13.3828C15.147 13.3828 14.9471 13.3046 14.8107 13.1848M18.5368 13.4282C17.6838 14.1745 16.5438 14.5826 15.369 14.5826C14.8752 14.5826 14.3886 14.411 14.0189 14.0862C13.6468 13.7593 13.4197 13.2977 13.4197 12.7973" fill="currentColor" fill-rule="evenodd"/>
    <path clip-rule="evenodd" d="M9.02026 18.7817C9.02026 17.7188 9.89284 16.8729 10.9494 16.8729H11.8104C12.8671 16.8729 13.7396 17.7188 13.7396 18.7817C13.7396 19.8446 12.8671 20.6905 11.8104 20.6905H10.9494C9.89282 20.6905 9.02026 19.8446 9.02026 18.7817ZM10.9494 18.0727C10.5379 18.0727 10.2201 18.3989 10.2201 18.7817C10.2201 19.1646 10.5379 19.4907 10.9494 19.4907H11.8104C12.222 19.4907 12.5397 19.1646 12.5397 18.7817C12.5397 18.3989 12.222 18.0727 11.8104 18.0727H10.9494Z" fill="currentColor" fill-rule="evenodd"/>
</svg>