<svg aria-hidden="true" fill="none" viewBox="0 0 26 27" xmlns="http://www.w3.org/2000/svg">
    <path clip-rule="evenodd" d="M1 12.75C1.41421 12.75 1.75 13.0858 1.75 13.5C1.75 16.4837 2.93522 19.3452 5.045 21.455L4.51467 21.9853L5.045 21.455C7.15478 23.5647 10.0163 24.75 13 24.75L13.0009 24.75C14.6613 24.752 16.3014 24.3851 17.8027 23.6759C19.304 22.9666 20.6291 21.9327 21.6821 20.6489C21.9448 20.3286 22.4174 20.2819 22.7376 20.5446C23.0579 20.8073 23.1046 21.2799 22.8419 21.6001C21.6479 23.0557 20.1456 24.228 18.4435 25.0321L18.4435 25.0321C16.7415 25.8362 14.8823 26.2521 13 26.25M1 12.75C0.585786 12.75 0.25 13.0858 0.25 13.5ZM0.25 13.5C0.25 16.8815 1.59324 20.1246 3.98434 22.5156ZM3.98434 22.5156C6.37532 24.9066 9.61817 26.2499 12.9996 26.25Z" fill="#3B436B" fill-rule="evenodd"/>
    <path clip-rule="evenodd" d="M13 2.25C10.0163 2.25 7.15478 3.43529 5.045 5.54508L4.51467 5.01475L5.045 5.54508C2.93522 7.65485 1.75 10.5163 1.75 13.5C1.75 13.9142 1.41421 14.25 1 14.25C0.585786 14.25 0.25 13.9142 0.25 13.5C0.25 10.1185 1.59324 6.87551 3.98434 4.48442M3.98434 4.48442C6.37542 2.09333 9.61846 0.75 13 0.75C13.4142 0.75 13.75 1.08579 13.75 1.5C13.75 1.91421 13.4142 2.25 13 2.25" fill="#4D5B97" fill-rule="evenodd"/>
    <path clip-rule="evenodd" d="M12.25 1.5C12.25 1.08579 12.5858 0.75 13 0.75C16.3815 0.75 19.6246 2.09333 22.0156 4.48442C24.4065 6.87528 25.7497 10.1178 25.75 13.4991C25.75 13.4994 25.75 13.4997 25.75 13.5H25L25.75 13.4986C25.75 13.4987 25.75 13.4989 25.75 13.4991C25.7555 16.4571 24.726 19.324 22.8397 21.6026C22.5756 21.9217 22.1028 21.9663 21.7838 21.7021C21.4647 21.438 21.4201 20.9652 21.6843 20.6462C23.3473 18.6371 24.255 16.1094 24.25 13.5014L24.25 13.5C24.25 10.5163 23.0647 7.65486 20.955 5.54508L21.46 5.04L20.955 5.54508C18.8452 3.43529 15.9837 2.25 13 2.25C12.5858 2.25 12.25 1.91421 12.25 1.5Z" fill="#2D3660" fill-rule="evenodd"/>
    <path clip-rule="evenodd" d="M13 8.25C10.1005 8.25 7.75 10.6005 7.75 13.5C7.75 16.3995 10.1005 18.75 13 18.75C15.8995 18.75 18.25 16.3995 18.25 13.5C18.25 10.6005 15.8995 8.25 13 8.25ZM6.25 13.5C6.25 9.77208 9.27208 6.75 13 6.75C16.7279 6.75 19.75 9.77208 19.75 13.5C19.75 17.2279 16.7279 20.25 13 20.25C9.27208 20.25 6.25 17.2279 6.25 13.5Z" fill="#3B436B" fill-rule="evenodd"/>
</svg>