<svg aria-hidden="true" viewBox="0 0 27 27" fill="none" xmlns="http://www.w3.org/2000/svg">
    <path fill-rule="evenodd" clip-rule="evenodd" d="M1.78638 12.8777C2.20059 12.8777 2.53638 13.2135 2.53638 13.6277C2.53638 16.6114 3.7216 19.4729 5.83137 21.5827L5.30105 22.113L5.83137 21.5827C7.94115 23.6924 10.8027 24.8777 13.7864 24.8777L13.7873 24.8777C15.4477 24.8797 17.0878 24.5128 18.5891 23.8035C20.0904 23.0943 21.4154 22.0604 22.4685 20.7765C22.7312 20.4563 23.2038 20.4096 23.524 20.6723C23.8443 20.935 23.8909 21.4076 23.6283 21.7278C22.4343 23.1834 20.932 24.3557 19.2299 25.1598L19.2298 25.1598C17.5279 25.9638 15.6687 26.3798 13.7864 26.3777M1.78638 12.8777C1.37216 12.8777 1.03638 13.2135 1.03638 13.6277ZM1.03638 13.6277C1.03638 17.0092 2.37962 20.2523 4.77072 22.6433ZM4.77072 22.6433C7.1617 25.0343 10.4046 26.3776 13.7859 26.3777Z" fill="#EC981A"/>
    <path fill-rule="evenodd" clip-rule="evenodd" d="M13.7864 2.37769C10.8027 2.37769 7.94116 3.56298 5.83138 5.67276L5.30105 5.14244L5.83138 5.67277C3.72159 7.78254 2.53638 10.644 2.53638 13.6277C2.53638 14.0419 2.20059 14.3777 1.78638 14.3777C1.37216 14.3777 1.03638 14.0419 1.03638 13.6277C1.03638 10.2462 2.37962 7.00319 4.77072 4.61211M4.77072 4.6121C7.1618 2.22101 10.4048 0.877686 13.7864 0.877686C14.2006 0.877686 14.5364 1.21347 14.5364 1.62769C14.5364 2.0419 14.2006 2.37769 13.7864 2.37769" fill="#FFC701"/>
    <path fill-rule="evenodd" clip-rule="evenodd" d="M13.0364 1.62769C13.0364 1.21347 13.3722 0.877686 13.7864 0.877686C17.1679 0.877686 20.411 2.22101 22.802 4.61211C25.1928 7.00296 26.5361 10.2455 26.5364 13.6267C26.5364 13.6271 26.5364 13.6274 26.5364 13.6277H25.7864L26.5364 13.6263C26.5364 13.6264 26.5364 13.6266 26.5364 13.6267C26.5419 16.5847 25.5124 19.4517 23.6261 21.7303C23.362 22.0494 22.8892 22.094 22.5701 21.8298C22.2511 21.5657 22.2065 21.0929 22.4706 20.7738C24.1337 18.7648 25.0413 16.2371 25.0364 13.6291L25.0364 13.6277C25.0364 10.644 23.8511 7.78254 21.7413 5.67276L22.2464 5.16769L21.7413 5.67276C19.6316 3.56298 16.7701 2.37769 13.7864 2.37769C13.3722 2.37769 13.0364 2.0419 13.0364 1.62769Z" fill="#A96500"/>
    <path fill-rule="evenodd" clip-rule="evenodd" d="M13.7864 8.37769C10.8869 8.37769 8.53638 10.7282 8.53638 13.6277C8.53638 16.5272 10.8869 18.8777 13.7864 18.8777C16.6859 18.8777 19.0364 16.5272 19.0364 13.6277C19.0364 10.7282 16.6859 8.37769 13.7864 8.37769ZM7.03638 13.6277C7.03638 9.89976 10.0585 6.87769 13.7864 6.87769C17.5143 6.87769 20.5364 9.89976 20.5364 13.6277C20.5364 17.3556 17.5143 20.3777 13.7864 20.3777C10.0585 20.3777 7.03638 17.3556 7.03638 13.6277Z" fill="#EC981A"/>
</svg>
