<svg aria-hidden="true" fill="none" viewBox="0 0 14 16" xmlns="http://www.w3.org/2000/svg">
    <path d="M11.1302 7.00006V4.00003C11.1302 1.79498 9.18686 0 6.79688 0C4.40757 0 2.46358 1.79498 2.46358 4.00003V7.00006C1.26694 7.00006 0.296875 7.8956 0.296875 8.99994V13.9999C0.296875 15.1046 1.26694 16 2.46358 16H11.1302C12.3266 16 13.2969 15.1046 13.2969 13.9999V8.99994C13.2969 7.89557 12.3266 7.00006 11.1302 7.00006ZM7.33857 11.8466V13.4999C7.33857 13.7763 7.09634 13.9999 6.79692 13.9999C6.49748 13.9999 6.25521 13.7763 6.25521 13.4999V11.8466C5.93727 11.6729 5.7136 11.3661 5.7136 11C5.7136 10.4472 6.1987 9.99998 6.79688 9.99998C7.39505 9.99998 7.88022 10.4472 7.88022 11C7.88025 11.3661 7.65633 11.6729 7.33857 11.8466ZM8.96344 7.00006H4.63024V4.00003C4.63024 2.89652 5.6019 1.99998 6.79688 1.99998C7.99127 1.99998 8.96342 2.89652 8.96342 4.00003L8.96344 7.00006Z" fill="#2D3660"/>
</svg>