<svg aria-hidden="true" viewBox="0 0 31 34" fill="none" xmlns="http://www.w3.org/2000/svg">
    <path fill-rule="evenodd" clip-rule="evenodd" d="M15.6098 10.8203C12.1599 10.8203 9.36314 13.617 9.36314 17.0669C9.36314 20.5168 12.1599 23.3136 15.6098 23.3136C19.0597 23.3136 21.8564 20.5168 21.8564 17.0669C21.8564 13.617 19.0597 10.8203 15.6098 10.8203ZM8.03961 17.0669C8.03961 12.886 11.4289 9.49675 15.6098 9.49675C19.7907 9.49675 23.18 12.886 23.18 17.0669C23.18 21.2478 19.7907 24.6371 15.6098 24.6371C11.4289 24.6371 8.03961 21.2478 8.03961 17.0669Z" fill="#EC981A"/>
    <path fill-rule="evenodd" clip-rule="evenodd" d="M15.6091 15.0715C14.4858 15.0715 13.6138 15.9461 13.6138 16.9782C13.6138 18.0103 14.4858 18.885 15.6091 18.885C16.7324 18.885 17.6044 18.0103 17.6044 16.9782C17.6044 15.9461 16.7324 15.0715 15.6091 15.0715ZM12.2902 16.9782C12.2902 15.1732 13.7974 13.748 15.6091 13.748C17.4207 13.748 18.9279 15.1732 18.9279 16.9782C18.9279 18.7832 17.4207 20.2085 15.6091 20.2085C13.7974 20.2085 12.2902 18.7832 12.2902 16.9782Z" fill="#FFC701"/>
    <path fill-rule="evenodd" clip-rule="evenodd" d="M15.5637 0.947174L17.6435 8.22705H13.4837L15.5637 0.947174ZM15.2383 6.90352H15.8889L15.5636 5.76499L15.2383 6.90352Z" fill="#FFC701"/>
    <path fill-rule="evenodd" clip-rule="evenodd" d="M13.4839 25.9067H17.6438L15.5638 33.1865L13.4839 25.9067ZM15.2386 27.2302L15.5638 28.3687L15.8891 27.2302H15.2386Z" fill="#FFC701"/>
    <path fill-rule="evenodd" clip-rule="evenodd" d="M1.60368 9.00693L8.94819 10.8457L6.86823 14.4482L1.60368 9.00693ZM5.776 11.4159L6.59935 12.2668L6.92465 11.7034L5.776 11.4159Z" fill="#FFC701"/>
    <path fill-rule="evenodd" clip-rule="evenodd" d="M24.2591 19.6856L29.5238 25.1268L22.1793 23.2882L24.2591 19.6856ZM24.5281 21.8669L24.2028 22.4304L25.3515 22.718L24.5281 21.8669Z" fill="#FFC701"/>
    <path fill-rule="evenodd" clip-rule="evenodd" d="M29.5236 9.00708L24.2591 14.4483L22.1791 10.8456L29.5236 9.00708ZM24.2026 11.7034L24.528 12.2669L25.3514 11.4159L24.2026 11.7034Z" fill="#FFC701"/>
    <path fill-rule="evenodd" clip-rule="evenodd" d="M6.86837 19.6854L8.94832 23.288L1.60384 25.1266L6.86837 19.6854ZM5.77606 22.7178L6.92479 22.4302L6.59947 21.8667L5.77606 22.7178Z" fill="#FFC701"/>
</svg>
