<svg aria-hidden="true" viewBox="0 0 31 33" fill="none" xmlns="http://www.w3.org/2000/svg">
    <path fill-rule="evenodd" clip-rule="evenodd" d="M15.5461 10.0495C12.0961 10.0495 9.29942 12.8463 9.29942 16.2962C9.29942 19.7461 12.0961 22.5428 15.5461 22.5428C18.996 22.5428 21.7927 19.7461 21.7927 16.2962C21.7927 12.8463 18.996 10.0495 15.5461 10.0495ZM7.97589 16.2962C7.97589 12.1153 11.3652 8.72601 15.5461 8.72601C19.727 8.72601 23.1162 12.1153 23.1162 16.2962C23.1162 20.4771 19.727 23.8664 15.5461 23.8664C11.3652 23.8664 7.97589 20.4771 7.97589 16.2962Z" fill="#3B436B"/>
    <path fill-rule="evenodd" clip-rule="evenodd" d="M15.5453 14.3008C14.422 14.3008 13.55 15.1754 13.55 16.2075C13.55 17.2396 14.422 18.1143 15.5453 18.1143C16.6687 18.1143 17.5407 17.2396 17.5407 16.2075C17.5407 15.1754 16.6687 14.3008 15.5453 14.3008ZM12.2265 16.2075C12.2265 14.4025 13.7337 12.9772 15.5453 12.9772C17.357 12.9772 18.8642 14.4025 18.8642 16.2075C18.8642 18.0125 17.357 19.4378 15.5453 19.4378C13.7337 19.4378 12.2265 18.0125 12.2265 16.2075Z" fill="#4D5B97"/>
    <path fill-rule="evenodd" clip-rule="evenodd" d="M15.4999 0.176392L17.5798 7.45627H13.4199L15.4999 0.176392ZM15.1746 6.13274H15.8252L15.4999 4.99421L15.1746 6.13274Z" fill="#4D5B97"/>
    <path fill-rule="evenodd" clip-rule="evenodd" d="M13.4202 25.1359H17.5801L15.5001 32.4158L13.4202 25.1359ZM15.1748 26.4595L15.5001 27.598L15.8254 26.4595H15.1748Z" fill="#4D5B97"/>
    <path fill-rule="evenodd" clip-rule="evenodd" d="M1.53996 8.23621L8.88447 10.0749L6.80451 13.6775L1.53996 8.23621ZM5.71228 10.6451L6.53563 11.4961L6.86093 10.9327L5.71228 10.6451Z" fill="#4D5B97"/>
    <path fill-rule="evenodd" clip-rule="evenodd" d="M24.1954 18.9148L29.4601 24.356L22.1156 22.5174L24.1954 18.9148ZM24.4644 21.0962L24.1391 21.6596L25.2878 21.9472L24.4644 21.0962Z" fill="#4D5B97"/>
    <path fill-rule="evenodd" clip-rule="evenodd" d="M29.4598 8.23633L24.1954 13.6775L22.1154 10.0749L29.4598 8.23633ZM24.1389 10.9327L24.4642 11.4962L25.2877 10.6451L24.1389 10.9327Z" fill="#4D5B97"/>
    <path fill-rule="evenodd" clip-rule="evenodd" d="M6.80465 18.9147L8.8846 22.5173L1.54012 24.3559L6.80465 18.9147ZM5.71234 21.9471L6.86107 21.6595L6.53575 21.096L5.71234 21.9471Z" fill="#4D5B97"/>
</svg>
