<svg aria-hidden="true" viewBox="0 0 26 26" fill="none" xmlns="http://www.w3.org/2000/svg">
    <path fill-rule="evenodd" clip-rule="evenodd" d="M2.63385 3.02263C2.82769 4.41168 3.47557 5.70654 4.48808 6.69838L4.48975 6.70001L15.8331 17.8811L17.7148 15.9544L6.35985 4.77133C5.33945 3.78839 4.02733 3.17777 2.63385 3.02263ZM1.81238 1.48423C3.89486 1.45406 5.90479 2.2485 7.40389 3.6943L7.40954 3.69975L7.40951 3.69978L19.2995 15.4098C19.5938 15.6996 19.5984 16.1727 19.3098 16.4682L16.3798 19.4682C16.2404 19.6109 16.0499 19.6922 15.8504 19.6941C15.6509 19.696 15.4588 19.6183 15.3167 19.4783L3.43842 7.76992C3.43812 7.76963 3.43783 7.76934 3.43753 7.76905C1.95057 6.312 1.10059 4.32569 1.07331 2.24398C1.06789 1.8302 1.39861 1.49022 1.81238 1.48423Z" fill="#FFC701"/>
    <path fill-rule="evenodd" clip-rule="evenodd" d="M20.3375 18.0282C20.6277 17.7327 21.1026 17.7284 21.3981 18.0186L24.7512 21.3116C24.9888 21.5477 25.1774 21.8284 25.3062 22.1378C25.4349 22.4471 25.5011 22.7788 25.5011 23.1137C25.5011 23.4488 25.4348 23.7804 25.3062 24.0896C25.1774 24.399 24.9888 24.6797 24.7512 24.9158L24.7484 24.9185C24.2734 25.3856 23.6339 25.6474 22.9676 25.6474C22.302 25.6474 21.6631 25.3861 21.1882 24.9199L17.7893 21.6111C17.4925 21.3222 17.4862 20.8473 17.7751 20.5505C18.064 20.2537 18.5389 20.2474 18.8357 20.5363L22.2358 23.8463L22.2384 23.8489C22.433 24.0402 22.6949 24.1474 22.9676 24.1474C23.2397 24.1474 23.501 24.0407 23.6954 23.8503C23.7921 23.7538 23.8688 23.6394 23.9212 23.5134C23.974 23.3867 24.0011 23.2509 24.0011 23.1137C24.0011 22.9765 23.974 22.8406 23.9213 22.7141C23.8689 22.5881 23.7921 22.4736 23.6953 22.3771L20.3471 19.0888C20.0516 18.7986 20.0473 18.3237 20.3375 18.0282Z" fill="#FFC701"/>
    <path fill-rule="evenodd" clip-rule="evenodd" d="M24.3531 14.7538C24.646 15.0467 24.646 15.5216 24.3531 15.8145L15.6231 24.5445C15.3302 24.8374 14.8553 24.8374 14.5624 24.5445C14.2696 24.2516 14.2696 23.7767 14.5624 23.4838L23.2924 14.7538C23.5853 14.461 24.0602 14.461 24.3531 14.7538Z" fill="#EC981A"/>
    <path fill-rule="evenodd" clip-rule="evenodd" d="M7.42633 15.3305C7.71575 15.0341 8.19059 15.0285 8.48692 15.3179L11.487 18.2479C11.7833 18.5373 11.7889 19.0122 11.4995 19.3085C11.2101 19.6049 10.7352 19.6105 10.4389 19.321L7.43886 16.391C7.14253 16.1016 7.13692 15.6268 7.42633 15.3305Z" fill="#A96500"/>
    <path fill-rule="evenodd" clip-rule="evenodd" d="M24.6243 1.12408C25.038 1.119 25.3777 1.4499 25.3835 1.8636C25.4124 3.94508 24.6186 5.95382 23.1748 7.45325C23.1744 7.45361 23.174 7.45398 23.1737 7.45435L19.1057 11.7121C18.8196 12.0116 18.3448 12.0224 18.0453 11.7363C17.7458 11.4502 17.735 10.9754 18.0212 10.6759L22.0913 6.41592L22.0934 6.41369C23.0774 5.39221 23.6889 4.07879 23.8447 2.68387C22.4566 2.87607 21.1619 3.52091 20.1683 4.52986M20.1683 4.52986L16.0582 8.70986C15.7678 9.00522 15.293 9.00922 14.9976 8.71881C14.7022 8.42839 14.6982 7.95354 14.9887 7.65818L19.0988 3.47818C20.5582 1.99593 22.5443 1.14964 24.6243 1.12408" fill="#A96500"/>
    <path fill-rule="evenodd" clip-rule="evenodd" d="M6.31575 17.7968C6.61298 18.0853 6.62007 18.5601 6.33158 18.8573L3.02445 22.2647C2.83372 22.4559 2.72656 22.7148 2.72656 22.985C2.72656 23.255 2.83369 23.5141 3.0244 23.7053L3.02941 23.7103C3.12444 23.8074 3.23783 23.8846 3.36307 23.9373C3.48805 23.9899 3.62244 24.017 3.75836 24.017C3.89428 24.017 4.02865 23.9899 4.15363 23.9373C4.27895 23.8845 4.39242 23.8074 4.48738 23.7104L4.48907 23.7086L7.78906 20.3586C8.07974 20.0635 8.5546 20.06 8.84969 20.3507C9.14478 20.6413 9.14835 21.1162 8.85767 21.4113L5.55937 24.7596C5.55905 24.7599 5.55873 24.7602 5.5584 24.7606C5.32392 24.9999 5.0441 25.19 4.73539 25.3199M6.31575 17.7968C6.01852 17.5083 5.54369 17.5154 5.25521 17.8126ZM5.25521 17.8126L1.95847 21.2093ZM1.95847 21.2093C1.48972 21.6813 1.22656 22.3195 1.22656 22.985C1.22656 23.651 1.49024 24.29 1.95992 24.7621C2.19403 25.0006 2.4732 25.1902 2.78132 25.3199M2.78132 25.3199C3.09078 25.4501 3.42297 25.517 3.75836 25.517ZM3.75836 25.517C4.09374 25.517 4.42594 25.4501 4.73539 25.3199Z" fill="#EC981A"/>
    <path fill-rule="evenodd" clip-rule="evenodd" d="M2.33295 14.5742C2.62585 14.2813 3.10072 14.2813 3.39361 14.5742L12.1136 23.2942C12.4065 23.5871 12.4065 24.0619 12.1136 24.3548C11.8207 24.6477 11.3458 24.6477 11.0529 24.3548L2.33295 15.6348C2.04006 15.3419 2.04006 14.8671 2.33295 14.5742Z" fill="#A96500"/>
</svg>
