<svg aria-hidden="true" fill="none" viewBox="0 0 26 26" xmlns="http://www.w3.org/2000/svg">
    <path clip-rule="evenodd" d="M2.31061 2.64861C2.50446 4.03765 3.15233 5.33252 4.16484 6.32435L4.16651 6.32598L15.5099 17.507L17.3916 15.5804L6.03661 4.39731C5.01622 3.41437 3.70409 2.80375 2.31061 2.64861ZM1.48914 1.1102C3.57162 1.08004 5.58155 1.87447 7.08065 3.32028L7.0863 3.32573L7.08627 3.32576L18.9763 15.0357C19.2705 15.3255 19.2751 15.7987 18.9866 16.0941L16.0566 19.0941C15.9172 19.2369 15.7266 19.3182 15.5271 19.3201C15.3276 19.322 15.1356 19.2443 14.9935 19.1042L3.11518 7.3959C3.11489 7.39561 3.11459 7.39532 3.1143 7.39503C1.62733 5.93797 0.777348 3.95166 0.750066 1.86995C0.744643 1.45618 1.07537 1.1162 1.48914 1.1102Z" fill="#4D5B97" fill-rule="evenodd"/>
    <path clip-rule="evenodd" d="M20.0143 17.6542C20.3045 17.3586 20.7793 17.3544 21.0749 17.6446L24.4279 20.9376C24.6656 21.1737 24.8542 21.4544 24.9829 21.7638C25.1116 22.073 25.1779 22.4048 25.1779 22.7397C25.1779 23.0747 25.1116 23.4063 24.9829 23.7156C24.8542 24.025 24.6656 24.3057 24.4279 24.5418L24.4252 24.5445C23.9502 25.0116 23.3106 25.2734 22.6444 25.2734C21.9788 25.2734 21.3399 25.0121 20.865 24.5459L17.4661 21.2371C17.1693 20.9482 17.1629 20.4733 17.4519 20.1765C17.7408 19.8797 18.2156 19.8733 18.5124 20.1623L21.9125 23.4723L21.9152 23.4749C22.1098 23.6662 22.3716 23.7734 22.6444 23.7734C22.9164 23.7734 23.1777 23.6667 23.3721 23.4763C23.4689 23.3798 23.5456 23.2654 23.598 23.1394C23.6507 23.0126 23.6779 22.8768 23.6779 22.7397C23.6779 22.6025 23.6507 22.4666 23.598 22.3401C23.5456 22.2141 23.4688 22.0995 23.3721 22.0031L20.0238 18.7148C19.7283 18.4246 19.724 17.9497 20.0143 17.6542Z" fill="#4D5B97" fill-rule="evenodd"/>
    <path clip-rule="evenodd" d="M24.0299 14.3799C24.3228 14.6728 24.3228 15.1477 24.0299 15.4405L15.2999 24.1705C15.007 24.4634 14.5321 24.4634 14.2392 24.1705C13.9463 23.8777 13.9463 23.4028 14.2392 23.1099L22.9692 14.3799C23.2621 14.087 23.737 14.087 24.0299 14.3799Z" fill="#3B436B" fill-rule="evenodd"/>
    <path clip-rule="evenodd" d="M7.10309 14.9565C7.3925 14.6602 7.86735 14.6546 8.16368 14.944L11.1637 17.874C11.4601 18.1634 11.4657 18.6382 11.1763 18.9346C10.8868 19.2309 10.412 19.2365 10.1157 18.9471L7.11562 16.0171C6.81929 15.7277 6.81368 15.2528 7.10309 14.9565Z" fill="#2D3660" fill-rule="evenodd"/>
    <path clip-rule="evenodd" d="M24.3011 0.750058C24.7148 0.744974 25.0545 1.07587 25.0602 1.48957C25.0892 3.57105 24.2954 5.5798 22.8515 7.07922C22.8512 7.07959 22.8508 7.07996 22.8504 7.08033L18.7825 11.3381C18.4963 11.6376 18.0216 11.6484 17.7221 11.3623C17.4226 11.0761 17.4118 10.6014 17.6979 10.3019L21.768 6.0419L21.7702 6.03967C22.7542 5.01818 23.3657 3.70476 23.5215 2.30985C22.1334 2.50204 20.8387 3.14689 19.8451 4.15584L15.735 8.33584C15.4446 8.63119 14.9697 8.6352 14.6744 8.34478C14.379 8.05437 14.375 7.57951 14.6654 7.28416L18.7755 3.10416C20.2349 1.62191 22.2211 0.775617 24.3011 0.750058Z" fill="#2D3660" fill-rule="evenodd"/>
    <path clip-rule="evenodd" d="M5.99251 17.4227C6.28974 17.7112 6.29683 18.186 6.00834 18.4832L2.7012 21.8906C2.51048 22.0818 2.40332 22.3408 2.40332 22.6109C2.40332 22.8809 2.51045 23.14 2.70115 23.3312L2.70617 23.3362C2.8012 23.4333 2.91459 23.5105 3.03983 23.5632C3.16481 23.6158 3.2992 23.6429 3.43512 23.6429C3.57103 23.6429 3.70541 23.6158 3.83039 23.5632C3.95571 23.5105 4.06918 23.4333 4.16413 23.3363L4.16583 23.3346L7.46582 19.9846C7.7565 19.6895 8.23136 19.6859 8.52645 19.9766C8.82154 20.2673 8.82511 20.7421 8.53442 21.0372L5.23613 24.3855C5.23581 24.3858 5.23548 24.3861 5.23516 24.3865C5.00068 24.6258 4.72086 24.8159 4.41215 24.9458M5.99251 17.4227C5.69527 17.1342 5.22045 17.1413 4.93196 17.4385ZM4.93196 17.4385L1.63523 20.8352ZM1.63523 20.8352C1.16648 21.3072 0.90332 21.9455 0.90332 22.6109C0.90332 23.2769 1.167 23.9159 1.63668 24.388C1.87079 24.6265 2.14996 24.8161 2.45808 24.9458M2.45808 24.9458C2.76753 25.076 3.09973 25.1429 3.43512 25.1429ZM3.43512 25.1429C3.7705 25.1429 4.1027 25.076 4.41215 24.9458Z" fill="#3B436B" fill-rule="evenodd"/>
    <path clip-rule="evenodd" d="M2.00971 14.2002C2.3026 13.9073 2.77748 13.9073 3.07037 14.2002L11.7903 22.9202C12.0832 23.2131 12.0832 23.688 11.7903 23.9809C11.4974 24.2738 11.0226 24.2738 10.7297 23.9809L2.00971 15.2609C1.71682 14.968 1.71682 14.4931 2.00971 14.2002Z" fill="#2D3660" fill-rule="evenodd"/>
</svg>