<svg aria-hidden="true" fill="none" viewBox="0 0 21 21" xmlns="http://www.w3.org/2000/svg">
    <path clip-rule="evenodd" d="M10.2264 1.12434C10.3962 1.02822 10.6039 1.02822 10.7737 1.12434L19.6583 6.15541C19.9068 6.29612 20.008 6.60236 19.8924 6.86347C18.4449 10.1318 16.9935 13.3626 15.3604 16.6418C14.9859 17.6051 14.3406 18.4342 13.5042 19.0213L13.5041 19.0214C12.66 19.6139 11.6608 19.9321 10.6362 19.9321C9.61161 19.9321 8.61212 19.6139 7.76798 19.0214C6.93102 18.4339 6.28552 17.6042 5.9111 16.6404L1.11706 6.88348C0.987386 6.61956 1.08594 6.3003 1.34182 6.15541L10.2264 1.12434ZM2.34476 6.86375L6.9187 16.1727C6.92613 16.1878 6.93287 16.2033 6.9389 16.219C7.23424 16.9904 7.7464 17.6494 8.40601 18.1124L8.40603 18.1124C9.06531 18.5752 9.84244 18.8215 10.6362 18.8215C11.4299 18.8215 12.2067 18.5752 12.8661 18.1124C13.5257 17.6494 14.0378 16.9904 14.3332 16.2191C14.3396 16.2024 14.3468 16.186 14.3547 16.17C15.9044 13.0597 17.2908 9.9899 18.6731 6.87378L10.5001 2.24567L2.34476 6.86375Z" fill="currentColor" fill-rule="evenodd"/>
    <path clip-rule="evenodd" d="M10.2698 4.23495C10.4583 4.10987 10.7038 4.11162 10.8905 4.23936L15.8353 7.62305C16.0482 7.76877 16.1327 8.04196 16.0393 8.28245C15.2219 10.3858 14.4013 12.4675 13.4778 14.581C13.2568 15.2249 12.8737 15.7908 12.3645 16.1982L12.3644 16.1983C11.8474 16.6118 11.2246 16.8416 10.5769 16.8416C9.92917 16.8416 9.30626 16.6118 8.78917 16.1983L8.78913 16.1982C8.2795 15.7905 7.89624 15.2241 7.67533 14.5797L4.96829 8.30117C4.86195 8.05454 4.94737 7.76716 5.17115 7.61865L10.2698 4.23495ZM6.17179 8.28747L8.70392 14.1603C8.71 14.1744 8.7155 14.1888 8.72039 14.2033C8.87848 14.6739 9.14866 15.0636 9.48288 15.331C9.81559 15.5971 10.1969 15.731 10.5769 15.731C10.9568 15.731 11.338 15.5971 11.6707 15.331C12.0049 15.0636 12.2751 14.6739 12.4332 14.2033C12.4384 14.1879 12.4443 14.1726 12.4508 14.1577C13.3086 12.1958 14.0781 10.2582 14.8444 8.29071L10.5721 5.36722L6.17179 8.28747Z" fill="currentColor" fill-rule="evenodd"/>
</svg>