<svg aria-hidden="true" viewBox="0 0 20 21" fill="none" xmlns="http://www.w3.org/2000/svg">
    <path fill-rule="evenodd" clip-rule="evenodd" d="M1.66667 1.75C1.43655 1.75 1.25 1.93655 1.25 2.16667V7.52898C1.25 7.7591 1.43655 7.94565 1.66667 7.94565H7.02898C7.2591 7.94565 7.44565 7.7591 7.44565 7.52898V2.16667C7.44565 1.93655 7.2591 1.75 7.02898 1.75H1.66667ZM0 2.16667C0 1.24619 0.746192 0.5 1.66667 0.5H7.02898C7.94946 0.5 8.69565 1.24619 8.69565 2.16667V7.52898C8.69565 8.44946 7.94946 9.19565 7.02898 9.19565H1.66667C0.746192 9.19565 0 8.44946 0 7.52898V2.16667Z" fill="#EC981A"/>
    <path fill-rule="evenodd" clip-rule="evenodd" d="M1.66667 13.0543C1.43655 13.0543 1.25 13.2409 1.25 13.471V18.8333C1.25 19.0634 1.43655 19.25 1.66667 19.25H7.02898C7.2591 19.25 7.44565 19.0634 7.44565 18.8333V13.471C7.44565 13.2409 7.2591 13.0543 7.02898 13.0543H1.66667ZM0 13.471C0 12.5505 0.746192 11.8043 1.66667 11.8043H7.02898C7.94946 11.8043 8.69565 12.5505 8.69565 13.471V18.8333C8.69565 19.7538 7.94946 20.5 7.02898 20.5H1.66667C0.746192 20.5 0 19.7538 0 18.8333V13.471Z" fill="#A96500"/>
    <path fill-rule="evenodd" clip-rule="evenodd" d="M12.9711 1.75C12.741 1.75 12.5544 1.93655 12.5544 2.16667V7.52898C12.5544 7.7591 12.741 7.94565 12.9711 7.94565H18.3334C18.5635 7.94565 18.7501 7.7591 18.7501 7.52898V2.16667C18.7501 1.93655 18.5635 1.75 18.3334 1.75H12.9711ZM11.3044 2.16667C11.3044 1.24619 12.0506 0.5 12.9711 0.5H18.3334C19.2539 0.5 20.0001 1.24619 20.0001 2.16667V7.52898C20.0001 8.44946 19.2539 9.19565 18.3334 9.19565H12.9711C12.0506 9.19565 11.3044 8.44946 11.3044 7.52898V2.16667Z" fill="#FFC701"/>
    <path fill-rule="evenodd" clip-rule="evenodd" d="M12.9711 13.0543C12.741 13.0543 12.5544 13.2409 12.5544 13.471V18.8333C12.5544 19.0634 12.741 19.25 12.9711 19.25H18.3334C18.5635 19.25 18.7501 19.0634 18.7501 18.8333V13.471C18.7501 13.2409 18.5635 13.0543 18.3334 13.0543H12.9711ZM11.3044 13.471C11.3044 12.5505 12.0506 11.8043 12.9711 11.8043H18.3334C19.2539 11.8043 20.0001 12.5505 20.0001 13.471V18.8333C20.0001 19.7538 19.2539 20.5 18.3334 20.5H12.9711C12.0506 20.5 11.3044 19.7538 11.3044 18.8333V13.471Z" fill="#EC981A"/>
</svg>
