<svg aria-hidden="true" fill="none" viewBox="0 0 21 21" xmlns="http://www.w3.org/2000/svg">
    <path clip-rule="evenodd" d="M2.2172 1.72046C1.98709 1.72046 1.80054 1.90701 1.80054 2.13713V7.49944C1.80054 7.72956 1.98709 7.91611 2.2172 7.91611H7.57952C7.80964 7.91611 7.99619 7.72956 7.99619 7.49944V2.13713C7.99619 1.90701 7.80964 1.72046 7.57952 1.72046H2.2172ZM0.550537 2.13713C0.550537 1.21665 1.29673 0.470459 2.2172 0.470459H7.57952C8.49999 0.470459 9.24619 1.21665 9.24619 2.13713V7.49944C9.24619 8.41992 8.49999 9.16611 7.57952 9.16611H2.2172C1.29673 9.16611 0.550537 8.41992 0.550537 7.49944V2.13713Z" fill="#3B436B" fill-rule="evenodd"/>
    <path clip-rule="evenodd" d="M2.2172 13.0248C1.98709 13.0248 1.80054 13.2113 1.80054 13.4414V18.8038C1.80054 19.0339 1.98709 19.2204 2.2172 19.2204H7.57952C7.80964 19.2204 7.99619 19.0339 7.99619 18.8038V13.4414C7.99619 13.2113 7.80964 13.0248 7.57952 13.0248H2.2172ZM0.550537 13.4414C0.550537 12.521 1.29673 11.7748 2.2172 11.7748H7.57952C8.49999 11.7748 9.24619 12.521 9.24619 13.4414V18.8038C9.24619 19.7242 8.49999 20.4704 7.57952 20.4704H2.2172C1.29673 20.4704 0.550537 19.7242 0.550537 18.8038V13.4414Z" fill="#2D3660" fill-rule="evenodd"/>
    <path clip-rule="evenodd" d="M13.5216 1.72046C13.2915 1.72046 13.105 1.90701 13.105 2.13713V7.49944C13.105 7.72956 13.2915 7.91611 13.5216 7.91611H18.884C19.1141 7.91611 19.3006 7.72956 19.3006 7.49944V2.13713C19.3006 1.90701 19.1141 1.72046 18.884 1.72046H13.5216ZM11.855 2.13713C11.855 1.21665 12.6012 0.470459 13.5216 0.470459H18.884C19.8044 0.470459 20.5506 1.21665 20.5506 2.13713V7.49944C20.5506 8.41992 19.8044 9.16611 18.884 9.16611H13.5216C12.6012 9.16611 11.855 8.41992 11.855 7.49944V2.13713Z" fill="#4D5B97" fill-rule="evenodd"/>
    <path clip-rule="evenodd" d="M13.5216 13.0248C13.2915 13.0248 13.105 13.2113 13.105 13.4414V18.8038C13.105 19.0339 13.2915 19.2204 13.5216 19.2204H18.884C19.1141 19.2204 19.3006 19.0339 19.3006 18.8038V13.4414C19.3006 13.2113 19.1141 13.0248 18.884 13.0248H13.5216ZM11.855 13.4414C11.855 12.521 12.6012 11.7748 13.5216 11.7748H18.884C19.8044 11.7748 20.5506 12.521 20.5506 13.4414V18.8038C20.5506 19.7242 19.8044 20.4704 18.884 20.4704H13.5216C12.6012 20.4704 11.855 19.7242 11.855 18.8038V13.4414Z" fill="#3B436B" fill-rule="evenodd"/>
</svg>