<svg aria-hidden="true" viewBox="0 0 21 21" fill="none" xmlns="http://www.w3.org/2000/svg">
    <path d="M5.04521 19.7218C5.04512 19.7217 5.04495 19.7214 5.04471 19.7211M13.318 7.09317L13.4543 7.38218L13.7702 7.43033L19.6468 8.32623C19.6939 8.33431 19.7317 8.34343 19.7616 8.35231C19.7401 8.38374 19.7083 8.42382 19.6623 8.47229L15.4117 12.8185L15.1994 13.0355L15.2486 13.3351L16.2545 19.467C16.2567 19.4862 16.2596 19.5283 16.2601 19.6015C16.2476 19.595 16.234 19.5875 16.2193 19.5787L16.2102 19.5733L16.2008 19.5681L10.9396 16.6684L10.65 16.5088L10.3605 16.6684L5.0996 19.5681L5.09114 19.5729C5.06826 19.5859 5.04785 19.5966 5.02981 19.605C5.03024 19.5995 5.03082 19.5928 5.03157 19.5849C5.03432 19.556 5.03875 19.5178 5.04527 19.4694L6.05156 13.3351L6.10079 13.035L5.88788 12.818L1.63465 8.48093C1.58961 8.42902 1.55835 8.3863 1.53711 8.35271C1.56718 8.34367 1.6054 8.33447 1.65316 8.32623L7.53003 7.43033L7.84591 7.38218L7.98222 7.09318L10.6187 1.50322L10.6218 1.49658L10.6247 1.48986C10.6335 1.47 10.642 1.45211 10.6502 1.43604C10.6583 1.45206 10.6668 1.4699 10.6755 1.48969L10.6786 1.49649L10.6817 1.50321L13.318 7.09317Z" stroke="currentColor" stroke-width="1.19982"/>
</svg>
