<svg aria-hidden="true" fill="none" viewBox="0 0 16 14" xmlns="http://www.w3.org/2000/svg">
    <path clip-rule="evenodd" d="M15.8001 2.03891C15.227 2.29997 14.6098 2.47644 13.9624 2.55529C14.6235 2.14969 15.1308 1.50644 15.3698 0.740337C14.7508 1.11595 14.0669 1.38919 13.3361 1.53569C12.7537 0.898164 11.9213 0.5 11.0002 0.5C9.23391 0.5 7.80092 1.96944 7.80092 3.78171C7.80092 4.03899 7.82835 4.28871 7.88328 4.52917C5.2235 4.39194 2.86571 3.08679 1.28609 1.09901C1.01054 1.58542 0.852954 2.14969 0.852954 2.75066C0.852954 3.88872 1.41797 4.89333 2.27682 5.48211C1.75312 5.46614 1.25855 5.31684 0.826386 5.07273V5.11307C0.826386 6.70366 1.92972 8.03038 3.39477 8.33094C3.12652 8.40796 2.84353 8.44644 2.5514 8.44644C2.34543 8.44644 2.14397 8.42675 1.94885 8.38821C2.35627 9.69152 3.53749 10.6408 4.93843 10.6662C3.84327 11.5469 2.46255 12.0718 0.963617 12.0718C0.705365 12.0718 0.449916 12.0567 0.199951 12.0266C1.6165 12.9562 3.29946 13.4999 5.10601 13.4999C10.9937 13.4999 14.2121 8.49987 14.2121 4.16281C14.2121 4.0201 14.2093 3.87739 14.2038 3.73747C14.8295 3.2746 15.3724 2.69716 15.8001 2.03891Z" fill="currentColor" fill-rule="evenodd"/>
</svg>