<svg aria-hidden="true" fill="none" viewBox="0 0 16 17" xmlns="http://www.w3.org/2000/svg">
    <mask id="status_upgraded_svg" height="17" maskUnits="userSpaceOnUse" style="mask-type:luminance" width="16" x="0" y="0">
        <path d="M15.9683 0.29541H0.968262V16.2954H15.9683V0.29541Z" fill="white"/>
    </mask>
    <g mask="url(#status_upgraded_svg)">
        <path clip-rule="evenodd" d="M8.21162 0.312217C8.36966 0.217705 8.56685 0.217705 8.72488 0.312217L15.7837 4.53371C15.9346 4.62399 16.0271 4.78694 16.0271 4.96283V10.6707C16.0271 10.8507 15.9303 11.0168 15.7737 11.1056C15.6171 11.1944 15.4249 11.1922 15.2704 11.0998L8.46825 7.03186L1.66605 11.0998C1.51156 11.1922 1.31934 11.1944 1.16276 11.1056C1.00618 11.0168 0.909424 10.8507 0.909424 10.6707V4.96283C0.909424 4.78694 1.00184 4.62399 1.15279 4.53371L8.21162 0.312217ZM1.90942 5.2464V9.7891L8.21162 6.02015C8.36966 5.92564 8.56685 5.92564 8.72488 6.02015L15.0271 9.7891V5.2464L8.46825 1.32393L1.90942 5.2464Z" fill="#FFC701" fill-rule="evenodd"/>
        <path clip-rule="evenodd" d="M8.2117 8.77303C8.36973 8.67852 8.56692 8.67852 8.72496 8.77303L15.7838 12.9945C16.0208 13.1362 16.098 13.4432 15.9563 13.6802C15.8145 13.9172 15.5075 13.9945 15.2705 13.8527L8.46833 9.78474L1.66613 13.8527C1.42913 13.9945 1.12212 13.9172 0.980383 13.6802C0.838651 13.4432 0.915876 13.1362 1.15287 12.9945L8.2117 8.77303Z" fill="#EC981A" fill-rule="evenodd"/>
        <path clip-rule="evenodd" d="M8.2117 11.1989C8.36973 11.1044 8.56692 11.1044 8.72496 11.1989L15.7838 15.4204C16.0208 15.5621 16.098 15.8691 15.9563 16.1061C15.8145 16.3431 15.5075 16.4204 15.2705 16.2786L8.46833 12.2106L1.66613 16.2786C1.42914 16.4204 1.12212 16.3431 0.980384 16.1061C0.838651 15.8691 0.915875 15.5621 1.15287 15.4204L8.2117 11.1989Z" fill="#A96500" fill-rule="evenodd"/>
    </g>
</svg>