<svg aria-hidden="true"  fill="none" viewBox="0 0 21 19" xmlns="http://www.w3.org/2000/svg">
    <path clip-rule="evenodd" d="M14.0688 11.1194C14.0688 10.8128 14.3174 10.5642 14.624 10.5642H15.4743C17.939 10.5642 19.9379 12.5606 19.9379 15.0244C19.9379 16.7692 18.5223 18.1829 16.7771 18.1829H14.624C14.3174 18.1829 14.0688 17.9343 14.0688 17.6277C14.0688 17.3211 14.3174 17.0725 14.624 17.0725H16.7771C17.91 17.0725 18.8276 16.1551 18.8276 15.0244C18.8276 13.1748 17.3267 11.6746 15.4743 11.6746H14.624C14.3174 11.6746 14.0688 11.426 14.0688 11.1194Z" fill="currentColor" fill-rule="evenodd"/>
    <path clip-rule="evenodd" d="M12.4829 1.35681C12.4829 1.0502 12.7315 0.801636 13.0381 0.801636C15.1101 0.801636 16.7658 2.52052 16.7658 4.61097C16.7658 6.70141 15.1101 8.4203 13.0381 8.4203C12.7315 8.4203 12.4829 8.17174 12.4829 7.86513C12.4829 7.55852 12.7315 7.30995 13.0381 7.30995C14.4704 7.30995 15.6554 6.11496 15.6554 4.61097C15.6554 3.10697 14.4704 1.91199 13.0381 1.91199C12.7315 1.91199 12.4829 1.66343 12.4829 1.35681Z" fill="currentColor" fill-rule="evenodd"/>
    <path clip-rule="evenodd" d="M5.52561 11.6746C3.6732 11.6746 2.17236 13.1748 2.17236 15.0244C2.17236 16.1551 3.08992 17.0725 4.2228 17.0725H10.1152C11.2481 17.0725 12.1657 16.1551 12.1657 15.0244C12.1657 13.1748 10.6648 11.6746 8.81248 11.6746H5.52561ZM1.06201 15.0244C1.06201 12.5606 3.06089 10.5642 5.52561 10.5642H8.81248C11.2772 10.5642 13.276 12.5606 13.276 15.0244C13.276 16.7692 11.8605 18.1829 10.1152 18.1829H4.2228C2.4776 18.1829 1.06201 16.7692 1.06201 15.0244Z" fill="currentColor" fill-rule="evenodd"/>
    <path clip-rule="evenodd" d="M7.1693 1.91199C5.73703 1.91199 4.552 3.10697 4.552 4.61097C4.552 6.11497 5.73703 7.30995 7.1693 7.30995C8.60158 7.30995 9.7866 6.11497 9.7866 4.61097C9.7866 3.10697 8.60158 1.91199 7.1693 1.91199ZM3.44165 4.61097C3.44165 2.52052 5.09736 0.801636 7.1693 0.801636C9.24125 0.801636 10.897 2.52052 10.897 4.61097C10.897 6.70142 9.24125 8.4203 7.1693 8.4203C5.09736 8.4203 3.44165 6.70142 3.44165 4.61097Z" fill="currentColor" fill-rule="evenodd"/>
</svg>